<svg width="148" height="149" viewBox="0 0 148 149" fill="none" xmlns="http://www.w3.org/2000/svg">
<path d="M41.8138 118.586C41.3891 116.933 41.1438 115.24 41.082 113.534H43.1727C43.2504 115.058 43.4958 116.569 43.9045 118.038L41.8138 118.586ZM43.4863 108.798L41.3956 108.44C41.6653 106.769 42.0924 105.126 42.671 103.536L44.6571 104.273C44.1306 105.741 43.7455 107.256 43.5072 108.798H43.4863ZM46.6851 100.042L44.8871 98.9266C45.7572 97.4641 46.7654 96.0896 47.8977 94.8222L49.4657 96.2535C48.4243 97.4219 47.4999 98.6909 46.706 100.042H46.6851ZM52.9572 93.1383L51.7027 91.4124C53.0771 90.4106 54.5564 89.5636 56.1141 88.8866L56.9504 90.8441C55.5122 91.443 54.1506 92.2133 52.8944 93.1383H52.9572ZM90.2133 89.7706V87.6658C91.793 87.6515 93.3705 87.5461 94.9382 87.3501L95.1891 89.4549C93.5167 89.6544 91.8346 89.7598 90.1505 89.7706H90.2133ZM85.2792 89.6443C83.6485 89.5391 82.0178 89.4128 80.4079 89.2655L80.5961 87.1607C82.185 87.2869 83.7948 87.4343 85.4047 87.5185L85.2792 89.6443ZM61.3826 89.4128L60.9227 87.308C62.5549 86.9445 64.2107 86.6983 65.8776 86.5713L66.0449 88.6761C64.4548 88.8106 62.8759 89.0567 61.3199 89.4128H61.3826ZM75.5784 88.8656C73.9895 88.7393 72.3797 88.6551 70.7908 88.613V86.5082C72.4215 86.5082 74.0731 86.6345 75.7039 86.7607L75.5784 88.8656ZM100.04 88.4025L99.4332 86.2977C100.497 85.9849 101.538 85.5981 102.548 85.14C102.949 84.9648 103.34 84.768 103.719 84.5507L104.744 86.424C104.305 86.6555 103.865 86.887 103.426 87.0765C102.327 87.5911 101.196 88.0341 100.04 88.4025ZM108.862 83.4562L107.42 81.8986C108.535 80.8428 109.512 79.6473 110.326 78.3415L112.103 79.4781C111.199 80.9529 110.11 82.3041 108.862 83.4983V83.4562ZM114.173 74.7001L112.082 74.1739C112.329 73.2042 112.455 72.2073 112.458 71.2061C112.489 70.7155 112.489 70.2234 112.458 69.7328L114.549 69.4381C114.58 70.027 114.58 70.6172 114.549 71.2061C114.571 72.3961 114.445 73.5841 114.173 74.7422V74.7001ZM110.911 65.5863C110.096 64.2753 109.119 63.0731 108.005 62.0081L109.489 60.4926C110.721 61.688 111.802 63.0311 112.709 64.4918L110.911 65.5863ZM104.534 58.9351C103.28 57.8406 102.047 56.8302 100.897 55.5253L102.444 54.0729C103.51 55.2095 104.702 56.1777 105.914 57.3354L104.534 58.9351ZM97.8652 51.3788C97.0275 49.7931 96.4554 48.0793 96.1717 46.3062L98.2624 45.9694C98.5129 47.4393 98.9927 48.86 99.6841 50.179L97.8652 51.3788ZM98.1997 41.5072L96.109 41.2756C96.3112 39.5562 96.7401 37.8716 97.3843 36.2662L99.3496 37.066C98.7376 38.4456 98.3223 39.9053 98.1161 41.4019L98.1997 41.5072ZM101.628 33.0879L99.9768 31.7408C100.974 30.5031 102.151 29.4244 103.468 28.5415L104.639 30.3095C103.469 31.0498 102.425 31.9735 101.545 33.0458L101.628 33.0879Z" fill="white"/>
<path d="M50.3856 109.766L48.6085 108.608L43.0055 117.449L34.6427 111.176L33.3883 112.881L43.5491 120.522L50.3856 109.766Z" fill="white"/>
</svg>
