<svg width="148" height="149" viewBox="0 0 148 149" fill="none" xmlns="http://www.w3.org/2000/svg">
<path d="M84.004 114.481L83.1259 112.545C84.5893 111.892 86.0528 111.219 87.4954 110.44L88.4362 112.334C86.9727 113.134 85.4883 113.808 84.004 114.481ZM92.7849 110.082L91.7186 108.23C93.0951 107.44 94.4281 106.576 95.7118 105.641L96.9453 107.346C95.6066 108.33 94.2179 109.243 92.7849 110.082V110.082ZM100.792 104.125L99.3078 102.589C99.6841 102.231 100.06 101.852 100.416 101.452C101.144 100.699 101.822 99.8974 102.444 99.0528L104.179 100.253C103.539 101.174 102.841 102.053 102.088 102.884L100.792 104.125ZM106.625 95.8114L104.681 94.9695C105.267 93.5352 105.688 92.038 105.935 90.5073L108.026 90.8861C107.736 92.5738 107.266 94.2251 106.625 95.8114V95.8114ZM106.249 85.9609C106.116 84.4486 105.735 82.9691 105.12 81.5828L107.043 80.6988C107.75 82.2989 108.188 84.0059 108.34 85.7504L106.249 85.9609ZM102.569 77.8784C101.54 76.7394 100.366 75.7416 99.0778 74.9106L100.228 73.1425C101.674 74.0601 102.989 75.1719 104.137 76.4471L102.569 77.8784ZM94.9383 72.7216C93.642 72.1743 92.1785 71.6271 90.4851 71.0798L91.1123 68.975C92.8894 69.5433 94.4156 70.1116 95.7745 70.7009L94.9383 72.7216ZM85.8647 69.7117L84.4221 69.3118L81.1606 68.3856L81.746 66.2808L84.9866 67.1859L86.4292 67.5858L85.8647 69.7117ZM76.4775 66.8702C74.9304 66.3019 73.4041 65.6494 71.8988 64.9548L72.7978 63.0394C74.2404 63.6919 75.7248 64.3233 77.2092 64.8706L76.4775 66.8702ZM67.5084 62.6605C66.0658 61.8607 64.6651 60.9767 63.327 60.0716L64.4978 58.3036C65.8149 59.1876 67.1739 60.0295 68.5537 60.8083L67.5084 62.6605ZM59.292 57.167C58.0167 56.1356 56.7413 55.0621 55.5287 53.9466L56.9504 52.389C58.1212 53.4625 59.3547 54.4939 60.6091 55.4831L59.292 57.167ZM52.0164 50.5157C50.8874 49.295 49.8003 48.0321 48.7758 46.7692L50.4066 45.4221C51.4101 46.6639 52.4972 47.8847 53.5426 49.0424L52.0164 50.5157ZM45.7443 42.77C44.8035 41.4019 43.9254 39.9917 43.11 38.5604L44.9289 37.508C45.7234 38.8761 46.5806 40.2442 47.4796 41.5703L45.7443 42.77ZM40.8103 34.1613C40.4131 33.2983 40.0158 32.4354 39.6604 31.5513L41.6047 30.7305C41.9602 31.5934 42.3365 32.4143 42.7128 33.2562L40.8103 34.1613Z" fill="white"/>
<path d="M93.5375 118.354L94.1856 116.333L84.2758 113.134L88.1644 103.41L86.1992 102.61L81.4742 114.46L93.5375 118.354Z" fill="white"/>
</svg>
